<svg width="16" height="23" viewBox="0 0 16 23" fill="none" xmlns="http://www.w3.org/2000/svg">
<path fill-rule="evenodd" clip-rule="evenodd" d="M6.90088 3.23626L3.28788 15.2027C2.68938 17.185 3.81167 19.2781 5.79391 19.8766C7.77616 20.4751 9.86926 19.3528 10.4678 17.3705L13.7195 6.60071C14.1185 5.27901 13.3705 3.88387 12.0488 3.48482C10.7271 3.08576 9.33192 3.83381 8.93287 5.15551L5.68117 15.9253C5.48173 16.5859 5.85597 17.2838 6.51651 17.4833C7.17706 17.6827 7.87502 17.3085 8.07446 16.6479L10.9649 7.07476L12.1615 7.43606L9.27111 17.0092C8.87205 18.3309 7.47691 19.079 6.15521 18.6799C4.83352 18.2809 4.08547 16.8857 4.48452 15.564L7.73622 4.79421C8.33472 2.81196 10.4278 1.68968 12.4101 2.28817C14.3923 2.88666 15.5146 4.97976 14.9161 6.96201L11.4837 18.3301C10.4761 20.6015 7.87317 21.8101 5.43261 21.0732C2.99205 20.3363 1.49289 17.8892 1.91058 15.4397L5.70423 2.87496L6.90088 3.23626Z" fill="black"/>
</svg>
